<svg width="178" height="56" viewBox="0 0 178 56" fill="none" xmlns="http://www.w3.org/2000/svg">
<g filter="url(#filter0_d_3_417)">
<path d="M35.25 32.9688H37.7812C37.4688 36.1562 36.6146 38.8438 35.2188 41.0312C33.8229 43.1979 31.9479 44.8438 29.5938 45.9688C27.2604 47.0729 24.5104 47.625 21.3438 47.625C18.8229 47.625 16.5312 47.1458 14.4688 46.1875C12.4271 45.2083 10.6667 43.8333 9.1875 42.0625C7.72917 40.2708 6.60417 38.1354 5.8125 35.6562C5.02083 33.1771 4.625 30.4375 4.625 27.4375V21.0625C4.625 18.0417 5.02083 15.3021 5.8125 12.8438C6.60417 10.3646 7.72917 8.23958 9.1875 6.46875C10.6667 4.67708 12.4375 3.30208 14.5 2.34375C16.5833 1.36458 18.9062 0.875 21.4688 0.875C24.5729 0.875 27.2917 1.42708 29.625 2.53125C31.9583 3.63542 33.8229 5.28125 35.2188 7.46875C36.6146 9.63542 37.4688 12.3125 37.7812 15.5H35.25C34.9375 12.8542 34.2188 10.625 33.0938 8.8125C31.9896 6.97917 30.4688 5.58333 28.5312 4.625C26.5938 3.66667 24.2396 3.1875 21.4688 3.1875C19.2812 3.1875 17.3125 3.61458 15.5625 4.46875C13.8125 5.30208 12.3125 6.51042 11.0625 8.09375C9.8125 9.65625 8.84375 11.5312 8.15625 13.7188C7.48958 15.8854 7.15625 18.3125 7.15625 21V27.4375C7.15625 30.0833 7.48958 32.5104 8.15625 34.7188C8.82292 36.9062 9.77083 38.7917 11 40.375C12.2292 41.9375 13.7188 43.1562 15.4688 44.0312C17.2188 44.8854 19.1771 45.3125 21.3438 45.3125C24.1146 45.3125 26.4792 44.875 28.4375 44C30.3958 43.1042 31.9375 41.7396 33.0625 39.9062C34.2083 38.0729 34.9375 35.7604 35.25 32.9688ZM73.7812 25.3438V27.625H59V25.3438H73.7812ZM130.219 21.2188V27.2812C130.219 30.3229 129.812 33.0938 129 35.5938C128.208 38.0938 127.052 40.2396 125.531 42.0312C124.01 43.8229 122.188 45.2083 120.062 46.1875C117.938 47.1458 115.542 47.625 112.875 47.625C110.271 47.625 107.896 47.1458 105.75 46.1875C103.604 45.2083 101.76 43.8229 100.219 42.0312C98.6979 40.2396 97.5208 38.0938 96.6875 35.5938C95.875 33.0938 95.4688 30.3229 95.4688 27.2812V21.2188C95.4688 18.1562 95.875 15.3854 96.6875 12.9062C97.5208 10.4062 98.6979 8.26042 100.219 6.46875C101.74 4.67708 103.562 3.30208 105.688 2.34375C107.833 1.36458 110.208 0.875 112.812 0.875C115.479 0.875 117.875 1.36458 120 2.34375C122.125 3.30208 123.948 4.67708 125.469 6.46875C127.01 8.26042 128.188 10.4062 129 12.9062C129.812 15.3854 130.219 18.1562 130.219 21.2188ZM127.719 27.2812V21.1562C127.719 18.4896 127.385 16.0625 126.719 13.875C126.052 11.6667 125.073 9.77083 123.781 8.1875C122.51 6.60417 120.958 5.38542 119.125 4.53125C117.292 3.65625 115.188 3.21875 112.812 3.21875C110.5 3.21875 108.427 3.65625 106.594 4.53125C104.76 5.38542 103.208 6.60417 101.938 8.1875C100.667 9.77083 99.6979 11.6667 99.0312 13.875C98.3646 16.0625 98.0312 18.4896 98.0312 21.1562V27.2812C98.0312 29.9688 98.3646 32.4167 99.0312 34.625C99.7188 36.8333 100.698 38.7292 101.969 40.3125C103.24 41.8958 104.792 43.125 106.625 44C108.479 44.8542 110.562 45.2812 112.875 45.2812C115.25 45.2812 117.354 44.8542 119.188 44C121.021 43.125 122.573 41.8958 123.844 40.3125C125.115 38.7292 126.073 36.8333 126.719 34.625C127.385 32.4167 127.719 29.9688 127.719 27.2812ZM173.625 1.5V47H171.094L142.969 5.84375V47H140.406V1.5H142.969L171.094 42.5938V1.5H173.625Z" fill="#5089F9"/>
</g>
<defs>
<filter id="filter0_d_3_417" x="0.625" y="0.875" width="177" height="54.75" filterUnits="userSpaceOnUse" color-interpolation-filters="sRGB">
<feFlood flood-opacity="0" result="BackgroundImageFix"/>
<feColorMatrix in="SourceAlpha" type="matrix" values="0 0 0 0 0 0 0 0 0 0 0 0 0 0 0 0 0 0 127 0" result="hardAlpha"/>
<feOffset dy="4"/>
<feGaussianBlur stdDeviation="2"/>
<feComposite in2="hardAlpha" operator="out"/>
<feColorMatrix type="matrix" values="0 0 0 0 0 0 0 0 0 0 0 0 0 0 0 0 0 0 0.25 0"/>
<feBlend mode="normal" in2="BackgroundImageFix" result="effect1_dropShadow_3_417"/>
<feBlend mode="normal" in="SourceGraphic" in2="effect1_dropShadow_3_417" result="shape"/>
</filter>
</defs>
</svg>
