<svg width="23" height="24" viewBox="0 0 23 24" fill="none" xmlns="http://www.w3.org/2000/svg">
<path d="M17.952 4H17.0419V2H15.2215V4H7.94006V2H6.1197V4H5.20952C4.19922 4 3.39826 4.9 3.39826 6L3.38916 20C3.38916 21.1 4.19922 22 5.20952 22H17.952C18.9532 22 19.7724 21.1 19.7724 20V6C19.7724 4.9 18.9532 4 17.952 4ZM17.952 20H5.20952V10H17.952V20ZM17.952 8H5.20952V6H17.952V8ZM8.85024 14H7.02988V12H8.85024V14ZM12.491 14H10.6706V12H12.491V14ZM16.1317 14H14.3113V12H16.1317V14ZM8.85024 18H7.02988V16H8.85024V18ZM12.491 18H10.6706V16H12.491V18ZM16.1317 18H14.3113V16H16.1317V18Z" fill="black"/>
</svg>
