<svg width="41" height="41" viewBox="0 0 41 41" fill="none" xmlns="http://www.w3.org/2000/svg">
<path d="M1.7085 37.5492C1.7085 38.5058 2.47725 39.2746 3.43391 39.2746H25.6252C26.5818 39.2746 27.3506 38.5058 27.3506 37.5492V35.875H1.7085V37.5492ZM14.521 15.3579C8.11475 15.3579 1.7085 18.7917 1.7085 25.625H27.3335C27.3335 18.7917 20.9272 15.3579 14.521 15.3579ZM6.18433 22.2083C8.08058 19.5604 12.1122 18.7746 14.521 18.7746C16.9297 18.7746 20.9614 19.5604 22.8577 22.2083H6.18433ZM1.7085 29.0417H27.3335V32.4583H1.7085V29.0417ZM30.7502 8.54166V1.70833H27.3335V8.54166H18.7918L19.1847 11.9583H35.5164L33.1247 35.875H30.7502V39.2917H33.6885C35.1235 39.2917 36.3022 38.1812 36.4731 36.7804L39.2918 8.54166H30.7502Z" fill="white"/>
</svg>
