<svg width="41" height="41" viewBox="0 0 41 41" fill="none" xmlns="http://www.w3.org/2000/svg">
<path d="M28.2664 22.2083C29.5477 22.2083 30.6752 21.5079 31.256 20.4488L37.3718 9.36167C38.0039 8.23417 37.1839 6.83334 35.8856 6.83334H10.6022L8.99641 3.41667H3.41016V6.83334H6.82682L12.9768 19.7996L10.6706 23.9679C9.42349 26.2571 11.0635 29.0417 13.6602 29.0417H34.1602V25.625H13.6602L15.5393 22.2083H28.2664ZM12.2252 10.25H32.9814L28.2664 18.7917H16.2739L12.2252 10.25ZM13.6602 30.75C11.781 30.75 10.2606 32.2875 10.2606 34.1667C10.2606 36.0458 11.781 37.5833 13.6602 37.5833C15.5393 37.5833 17.0768 36.0458 17.0768 34.1667C17.0768 32.2875 15.5393 30.75 13.6602 30.75ZM30.7435 30.75C28.8643 30.75 27.3439 32.2875 27.3439 34.1667C27.3439 36.0458 28.8643 37.5833 30.7435 37.5833C32.6227 37.5833 34.1602 36.0458 34.1602 34.1667C34.1602 32.2875 32.6227 30.75 30.7435 30.75Z" fill="white"/>
</svg>
